<mxfile host="65bd71144e">
    <diagram id="58amVU8w5TnCeiXaNa2C" name="Pagina-1">
        <mxGraphModel dx="4590" dy="2234" grid="1" gridSize="10" guides="1" tooltips="1" connect="1" arrows="1" fold="1" page="1" pageScale="1" pageWidth="827" pageHeight="1169" math="0" shadow="0">
            <root>
                <mxCell id="0"/>
                <mxCell id="1" parent="0"/>
                <mxCell id="57" value="begin ==&amp;nbsp;&lt;br&gt;" style="rounded=0;whiteSpace=wrap;html=1;fontSize=12;" parent="1" vertex="1">
                    <mxGeometry x="444.5" y="1060" width="120" height="40" as="geometry"/>
                </mxCell>
                <mxCell id="6" value="geoPlace == Venezia" style="edgeStyle=none;html=1;exitX=0.5;exitY=1;exitDx=0;exitDy=0;" parent="1" source="2" target="3" edge="1">
                    <mxGeometry relative="1" as="geometry"/>
                </mxCell>
                <mxCell id="43" style="edgeStyle=none;html=1;exitX=0;exitY=0.5;exitDx=0;exitDy=0;fontSize=10;" parent="1" source="2" edge="1">
                    <mxGeometry relative="1" as="geometry">
                        <mxPoint x="230" y="105" as="targetPoint"/>
                    </mxGeometry>
                </mxCell>
                <mxCell id="2" value="localization" style="whiteSpace=wrap;html=1;aspect=fixed;" parent="1" vertex="1">
                    <mxGeometry x="374" y="50" width="110" height="110" as="geometry"/>
                </mxCell>
                <mxCell id="10" style="edgeStyle=none;html=1;exitX=0.5;exitY=1;exitDx=0;exitDy=0;entryX=0.5;entryY=0;entryDx=0;entryDy=0;" parent="1" source="3" target="9" edge="1">
                    <mxGeometry relative="1" as="geometry"/>
                </mxCell>
                <mxCell id="44" style="edgeStyle=none;html=1;exitX=0;exitY=0.5;exitDx=0;exitDy=0;fontSize=10;entryX=0.1;entryY=0.5;entryDx=0;entryDy=0;entryPerimeter=0;" parent="1" source="3" target="29" edge="1">
                    <mxGeometry relative="1" as="geometry">
                        <mxPoint x="250" y="110" as="targetPoint"/>
                        <Array as="points">
                            <mxPoint x="310" y="310"/>
                            <mxPoint x="310" y="105"/>
                        </Array>
                    </mxGeometry>
                </mxCell>
                <mxCell id="3" value="arrivo_venezia" style="whiteSpace=wrap;html=1;aspect=fixed;" parent="1" vertex="1">
                    <mxGeometry x="379" y="260" width="100" height="100" as="geometry"/>
                </mxCell>
                <mxCell id="4" value="" style="shape=curlyBracket;whiteSpace=wrap;html=1;rounded=1;rotation=-180;" parent="1" vertex="1">
                    <mxGeometry x="550" y="250" width="20" height="120" as="geometry"/>
                </mxCell>
                <mxCell id="5" value="&lt;b&gt;Tag:&lt;br&gt;&lt;/b&gt;&lt;br&gt;arrivo_venezis&lt;br&gt;&lt;br&gt;soggiorno_venezia&lt;br&gt;&lt;br&gt;verifica_venezia&lt;br&gt;&lt;br&gt;abitazio_venezia" style="text;html=1;strokeColor=none;fillColor=none;align=center;verticalAlign=middle;whiteSpace=wrap;rounded=0;" parent="1" vertex="1">
                    <mxGeometry x="630" y="295" width="60" height="30" as="geometry"/>
                </mxCell>
                <mxCell id="8" value="cambia nome variabile in notebook" style="shape=note;strokeWidth=2;fontSize=14;size=20;whiteSpace=wrap;html=1;fillColor=#fff2cc;strokeColor=#d6b656;fontColor=#666600;" parent="1" vertex="1">
                    <mxGeometry x="470" y="330" width="110.00000000000001" height="80" as="geometry"/>
                </mxCell>
                <mxCell id="9" value="tag selection" style="shape=process;whiteSpace=wrap;html=1;backgroundOutline=1;" parent="1" vertex="1">
                    <mxGeometry x="369" y="430" width="120" height="30" as="geometry"/>
                </mxCell>
                <mxCell id="23" value="" style="edgeStyle=orthogonalEdgeStyle;startArrow=none;endArrow=none;rounded=0;targetPortConstraint=eastwest;sourcePortConstraint=northsouth;" parent="1" target="25" edge="1">
                    <mxGeometry relative="1" as="geometry">
                        <mxPoint x="429" y="460" as="sourcePoint"/>
                    </mxGeometry>
                </mxCell>
                <mxCell id="24" value="" style="edgeStyle=orthogonalEdgeStyle;startArrow=none;endArrow=none;rounded=0;targetPortConstraint=eastwest;sourcePortConstraint=northsouth;" parent="1" target="26" edge="1">
                    <mxGeometry relative="1" as="geometry">
                        <mxPoint x="429" y="460" as="sourcePoint"/>
                    </mxGeometry>
                </mxCell>
                <mxCell id="41" style="edgeStyle=none;html=1;exitX=0;exitY=0.5;exitDx=0;exitDy=0;entryX=1;entryY=0.5;entryDx=0;entryDy=0;entryPerimeter=0;fontSize=10;" parent="1" source="25" target="33" edge="1">
                    <mxGeometry relative="1" as="geometry">
                        <Array as="points">
                            <mxPoint x="170" y="540"/>
                            <mxPoint x="170" y="380"/>
                        </Array>
                    </mxGeometry>
                </mxCell>
                <mxCell id="25" value="abitazione_venezia" style="whiteSpace=wrap;html=1;align=center;verticalAlign=middle;treeFolding=1;treeMoving=1;" parent="1" vertex="1">
                    <mxGeometry x="290" y="500" width="129" height="80" as="geometry"/>
                </mxCell>
                <mxCell id="55" style="edgeStyle=none;html=1;exitX=0.5;exitY=1;exitDx=0;exitDy=0;entryX=0.5;entryY=0;entryDx=0;entryDy=0;entryPerimeter=0;fontSize=12;" parent="1" source="26" target="46" edge="1">
                    <mxGeometry relative="1" as="geometry"/>
                </mxCell>
                <mxCell id="26" value="arrivo_venezia" style="whiteSpace=wrap;html=1;align=center;verticalAlign=middle;treeFolding=1;treeMoving=1;" parent="1" vertex="1">
                    <mxGeometry x="439" y="500" width="131" height="80" as="geometry"/>
                </mxCell>
                <mxCell id="28" value="" style="shape=curlyBracket;whiteSpace=wrap;html=1;rounded=1;" parent="1" vertex="1">
                    <mxGeometry x="110" y="85" width="20" height="40" as="geometry"/>
                </mxCell>
                <mxCell id="29" value="" style="shape=curlyBracket;whiteSpace=wrap;html=1;rounded=1;flipH=1;" parent="1" vertex="1">
                    <mxGeometry x="210" y="85" width="20" height="40" as="geometry"/>
                </mxCell>
                <mxCell id="42" style="edgeStyle=none;html=1;exitX=0.5;exitY=1;exitDx=0;exitDy=0;fontSize=10;entryX=1;entryY=0.5;entryDx=0;entryDy=0;entryPerimeter=0;" parent="1" source="30" target="33" edge="1">
                    <mxGeometry relative="1" as="geometry">
                        <mxPoint x="179.76470588235316" y="370" as="targetPoint"/>
                        <Array as="points">
                            <mxPoint x="170" y="380"/>
                        </Array>
                    </mxGeometry>
                </mxCell>
                <mxCell id="30" value="&lt;font style=&quot;font-size: 6px&quot;&gt;pk_person: [id_loc, id_loc ...]&lt;/font&gt;" style="text;html=1;strokeColor=none;fillColor=none;align=center;verticalAlign=middle;whiteSpace=wrap;rounded=0;" parent="1" vertex="1">
                    <mxGeometry x="130" y="90" width="80" height="30" as="geometry"/>
                </mxCell>
                <mxCell id="36" value="&lt;font style=&quot;font-size: 10px&quot;&gt;True&lt;/font&gt;" style="edgeStyle=none;html=1;exitX=0;exitY=0.5;exitDx=0;exitDy=0;exitPerimeter=0;fontSize=6;entryX=1;entryY=1;entryDx=0;entryDy=0;" parent="1" source="33" target="40" edge="1">
                    <mxGeometry relative="1" as="geometry">
                        <mxPoint x="-200" y="310" as="targetPoint"/>
                    </mxGeometry>
                </mxCell>
                <mxCell id="38" value="&lt;font style=&quot;font-size: 10px&quot;&gt;False&lt;/font&gt;" style="edgeStyle=none;html=1;exitX=0;exitY=0.5;exitDx=0;exitDy=0;exitPerimeter=0;fontSize=6;entryX=1;entryY=0;entryDx=0;entryDy=0;" parent="1" source="33" target="39" edge="1">
                    <mxGeometry relative="1" as="geometry">
                        <mxPoint x="-170" y="490" as="targetPoint"/>
                    </mxGeometry>
                </mxCell>
                <mxCell id="33" value="&lt;font style=&quot;font-size: 10px&quot;&gt;is the last element&lt;/font&gt;" style="strokeWidth=2;html=1;shape=mxgraph.flowchart.decision;whiteSpace=wrap;fontSize=6;" parent="1" vertex="1">
                    <mxGeometry x="-60" y="330" width="100" height="100" as="geometry"/>
                </mxCell>
                <mxCell id="60" style="edgeStyle=none;html=1;exitX=0.5;exitY=1;exitDx=0;exitDy=0;fontSize=12;" parent="1" source="39" edge="1">
                    <mxGeometry relative="1" as="geometry">
                        <mxPoint x="-259.63636363636374" y="570" as="targetPoint"/>
                    </mxGeometry>
                </mxCell>
                <mxCell id="39" value="Error" style="rounded=0;whiteSpace=wrap;html=1;fontSize=10;" parent="1" vertex="1">
                    <mxGeometry x="-320" y="500" width="120" height="30" as="geometry"/>
                </mxCell>
                <mxCell id="40" value="correct" style="rounded=0;whiteSpace=wrap;html=1;fontSize=10;" parent="1" vertex="1">
                    <mxGeometry x="-320" y="280" width="120" height="30" as="geometry"/>
                </mxCell>
                <mxCell id="47" value="True" style="edgeStyle=none;html=1;exitX=0;exitY=0.5;exitDx=0;exitDy=0;exitPerimeter=0;fontSize=10;entryX=1;entryY=0.5;entryDx=0;entryDy=0;" parent="1" source="46" target="48" edge="1">
                    <mxGeometry relative="1" as="geometry">
                        <mxPoint x="210" y="699.5882352941178" as="targetPoint"/>
                    </mxGeometry>
                </mxCell>
                <mxCell id="49" value="False" style="edgeStyle=none;html=1;exitX=0.5;exitY=1;exitDx=0;exitDy=0;exitPerimeter=0;fontSize=12;entryX=0.5;entryY=0;entryDx=0;entryDy=0;entryPerimeter=0;" parent="1" source="46" target="50" edge="1">
                    <mxGeometry relative="1" as="geometry">
                        <mxPoint x="505.58823529411757" y="880" as="targetPoint"/>
                    </mxGeometry>
                </mxCell>
                <mxCell id="46" value="&lt;font style=&quot;font-size: 12px&quot;&gt;begin&amp;nbsp;&lt;/font&gt;" style="strokeWidth=2;html=1;shape=mxgraph.flowchart.decision;whiteSpace=wrap;fontSize=10;" parent="1" vertex="1">
                    <mxGeometry x="455" y="650" width="100" height="100" as="geometry"/>
                </mxCell>
                <mxCell id="48" value="&lt;font style=&quot;font-size: 12px&quot;&gt;pass&lt;/font&gt;" style="rounded=0;whiteSpace=wrap;html=1;fontSize=10;" parent="1" vertex="1">
                    <mxGeometry x="170" y="670" width="120" height="60" as="geometry"/>
                </mxCell>
                <mxCell id="51" value="True" style="edgeStyle=none;html=1;exitX=0;exitY=0.5;exitDx=0;exitDy=0;exitPerimeter=0;fontSize=12;entryX=1;entryY=0.5;entryDx=0;entryDy=0;" parent="1" source="50" target="52" edge="1">
                    <mxGeometry relative="1" as="geometry">
                        <mxPoint x="210" y="930.1764705882354" as="targetPoint"/>
                    </mxGeometry>
                </mxCell>
                <mxCell id="53" value="False" style="edgeStyle=none;html=1;exitX=0.5;exitY=1;exitDx=0;exitDy=0;exitPerimeter=0;fontSize=12;" parent="1" source="50" target="57" edge="1">
                    <mxGeometry relative="1" as="geometry">
                        <mxPoint x="510" y="1060" as="targetPoint"/>
                    </mxGeometry>
                </mxCell>
                <mxCell id="50" value="&lt;font style=&quot;font-size: 12px&quot;&gt;At some time&lt;/font&gt;" style="strokeWidth=2;html=1;shape=mxgraph.flowchart.decision;whiteSpace=wrap;fontSize=10;" parent="1" vertex="1">
                    <mxGeometry x="455" y="870" width="100" height="100" as="geometry"/>
                </mxCell>
                <mxCell id="52" value="&lt;font style=&quot;font-size: 12px&quot;&gt;begin == at_some_time&lt;/font&gt;" style="rounded=0;whiteSpace=wrap;html=1;fontSize=10;" parent="1" vertex="1">
                    <mxGeometry x="180" y="890" width="120" height="60" as="geometry"/>
                </mxCell>
                <mxCell id="54" value="get_begin from OA | OB" style="shape=process;whiteSpace=wrap;html=1;backgroundOutline=1;fontSize=12;" parent="1" vertex="1">
                    <mxGeometry x="445" y="1100" width="120" height="30" as="geometry"/>
                </mxCell>
                <mxCell id="61" value="list[id_localizatin]" style="shape=process;whiteSpace=wrap;html=1;backgroundOutline=1;fontSize=12;" parent="1" vertex="1">
                    <mxGeometry x="-320" y="570" width="120" height="30" as="geometry"/>
                </mxCell>
                <mxCell id="62" value="" style="shape=curlyBracket;whiteSpace=wrap;html=1;rounded=1;flipH=1;fontSize=12;size=0.5;" parent="1" vertex="1">
                    <mxGeometry x="580" y="1105" width="20" height="25" as="geometry"/>
                </mxCell>
                <mxCell id="66" value="" style="shape=curlyBracket;whiteSpace=wrap;html=1;rounded=1;flipH=1;fontSize=12;fillColor=#f8cecc;strokeColor=#b85450;" parent="1" vertex="1">
                    <mxGeometry x="911" y="510" width="20" height="710" as="geometry"/>
                </mxCell>
                <mxCell id="71" value="get_begin" style="shape=process;whiteSpace=wrap;html=1;backgroundOutline=1;fontSize=12;fillColor=#f8cecc;strokeColor=#b85450;" parent="1" vertex="1">
                    <mxGeometry x="971" y="850" width="250" height="30" as="geometry"/>
                </mxCell>
                <mxCell id="72" value="arrivo_venezia" style="swimlane;fontStyle=0;childLayout=stackLayout;horizontal=1;startSize=26;fillColor=none;horizontalStack=0;resizeParent=1;resizeParentMax=0;resizeLast=0;collapsible=1;marginBottom=0;fontSize=12;" parent="1" vertex="1">
                    <mxGeometry x="670" y="592" width="140" height="78" as="geometry"/>
                </mxCell>
                <mxCell id="73" value="pk_person" style="text;strokeColor=none;fillColor=none;align=left;verticalAlign=top;spacingLeft=4;spacingRight=4;overflow=hidden;rotatable=0;points=[[0,0.5],[1,0.5]];portConstraint=eastwest;fontSize=12;" parent="72" vertex="1">
                    <mxGeometry y="26" width="140" height="26" as="geometry"/>
                </mxCell>
                <mxCell id="74" value="begin" style="text;strokeColor=none;fillColor=none;align=left;verticalAlign=top;spacingLeft=4;spacingRight=4;overflow=hidden;rotatable=0;points=[[0,0.5],[1,0.5]];portConstraint=eastwest;fontSize=12;" parent="72" vertex="1">
                    <mxGeometry y="52" width="140" height="26" as="geometry"/>
                </mxCell>
                <mxCell id="76" value="&lt;font style=&quot;font-size: 8px&quot;&gt;&lt;div&gt;def get_begin(sub_set):&lt;/div&gt;&lt;div&gt;&lt;br&gt;&lt;/div&gt;&lt;div&gt;&amp;nbsp; &amp;nbsp; begin_list = []&lt;/div&gt;&lt;div&gt;&amp;nbsp; &amp;nbsp; for ix, e in sub_set.iterrow():&lt;/div&gt;&lt;div&gt;&amp;nbsp; &amp;nbsp; &amp;nbsp; &amp;nbsp; if ~ np.isnan(e.begin):&lt;/div&gt;&lt;div&gt;&amp;nbsp; &amp;nbsp; &amp;nbsp; &amp;nbsp; &amp;nbsp; &amp;nbsp; begin_list.append(e.begin)&lt;/div&gt;&lt;div&gt;&amp;nbsp; &amp;nbsp; if len(begin_list)&amp;gt;0:&lt;/div&gt;&lt;div&gt;&amp;nbsp; &amp;nbsp; &amp;nbsp; &amp;nbsp; return begin_list.min()&amp;nbsp; &amp;nbsp; &amp;nbsp;# correggi introducendo una distinzione tra oa e ob&lt;/div&gt;&lt;div&gt;&amp;nbsp; &amp;nbsp; else:&lt;/div&gt;&lt;div&gt;&amp;nbsp; &amp;nbsp; &amp;nbsp; &amp;nbsp; return np.nan&lt;/div&gt;&lt;div&gt;&lt;br&gt;&lt;/div&gt;&lt;div&gt;&lt;br&gt;&lt;/div&gt;&lt;div&gt;def fill_approx_begin(e):&lt;/div&gt;&lt;div&gt;&lt;br&gt;&lt;/div&gt;&lt;div&gt;&amp;nbsp; &amp;nbsp; if ~ np.nan(r.occours_after):&lt;/div&gt;&lt;div&gt;&amp;nbsp; &amp;nbsp; &amp;nbsp; &amp;nbsp; oa_df = localisation[localisation.id_localisation.isin([localisation.loc[i, 'occours_after']])]&lt;/div&gt;&lt;div&gt;&amp;nbsp; &amp;nbsp; &amp;nbsp; &amp;nbsp; return get_begin(oa_df)&lt;/div&gt;&lt;div&gt;&amp;nbsp; &amp;nbsp; elif ~ np.nan(r.occours_before):&lt;/div&gt;&lt;div&gt;&amp;nbsp; &amp;nbsp; &amp;nbsp; &amp;nbsp; ob_df = localisation[localisation.id_localisation.isin([localisation.loc[i, 'occours_before']])]&lt;/div&gt;&lt;div&gt;&amp;nbsp; &amp;nbsp; &amp;nbsp; &amp;nbsp; return get_begin(ob_df)&lt;/div&gt;&lt;div&gt;&lt;br&gt;&lt;/div&gt;&lt;div&gt;&lt;br&gt;&lt;/div&gt;&lt;div&gt;def fill_begin(e):&lt;/div&gt;&lt;div&gt;&lt;br&gt;&lt;/div&gt;&lt;div&gt;&amp;nbsp; &amp;nbsp; if ~ np.isnan(r.begin):&lt;/div&gt;&lt;div&gt;&amp;nbsp; &amp;nbsp; &amp;nbsp; &amp;nbsp; return r.begin&lt;/div&gt;&lt;div&gt;&amp;nbsp; &amp;nbsp; elif ~ np.isnan(r.at_some_time):&lt;/div&gt;&lt;div&gt;&amp;nbsp; &amp;nbsp; &amp;nbsp; &amp;nbsp; return r.at_some_time&lt;/div&gt;&lt;div&gt;&amp;nbsp; &amp;nbsp; else:&lt;/div&gt;&lt;div&gt;&amp;nbsp; &amp;nbsp; &amp;nbsp; &amp;nbsp; return fill_approx_begin(r)&lt;/div&gt;&lt;div&gt;&lt;br&gt;&lt;/div&gt;&lt;div&gt;&lt;br&gt;&lt;/div&gt;&lt;div&gt;&lt;font color=&quot;#994c00&quot;&gt;def redefine_arrival(df)&lt;/font&gt;:&lt;/div&gt;&lt;div&gt;&lt;br&gt;&lt;/div&gt;&lt;div&gt;&amp;nbsp; &amp;nbsp; arrival = [['pk_person', 'begin']]&lt;/div&gt;&lt;div&gt;&amp;nbsp; &amp;nbsp; for i,r in df.iterrows():&lt;/div&gt;&lt;div&gt;&amp;nbsp; &amp;nbsp; &amp;nbsp; &amp;nbsp; arrival.append([e.pk_person, fill_begin(r)])&lt;/div&gt;&lt;div&gt;&amp;nbsp; &amp;nbsp; return pd.DataFrame(arrival[1:], columns=arrival[0])&lt;/div&gt;&lt;div&gt;&lt;br&gt;&lt;/div&gt;&lt;/font&gt;" style="text;html=1;strokeColor=none;fillColor=none;align=left;verticalAlign=middle;whiteSpace=wrap;rounded=0;fontSize=12;" parent="1" vertex="1">
                    <mxGeometry x="1350" y="830" width="870" height="120" as="geometry"/>
                </mxCell>
                <mxCell id="77" value="&lt;font style=&quot;font-size: 12px&quot;&gt;=&lt;/font&gt;" style="text;html=1;strokeColor=none;fillColor=none;align=center;verticalAlign=middle;whiteSpace=wrap;rounded=0;fontSize=8;fontColor=#994C00;" parent="1" vertex="1">
                    <mxGeometry x="1260" y="850" width="60" height="30" as="geometry"/>
                </mxCell>
            </root>
        </mxGraphModel>
    </diagram>
</mxfile>